<svg xmlns="http://www.w3.org/2000/svg" viewBox="0 0 351.09 351.09"><defs><style>.cls-1{fill:#fff;}</style></defs><g id="Layer_2" data-name="Layer 2"><g id="Layer_3" data-name="Layer 3"><path class="cls-1" d="M246.65,30a74.52,74.52,0,0,1,74.44,74.43V246.65a74.53,74.53,0,0,1-74.44,74.44H104.43A74.52,74.52,0,0,1,30,246.65V104.43A74.52,74.52,0,0,1,104.43,30H246.65m0-30H104.43A104.44,104.44,0,0,0,0,104.43V246.65A104.44,104.44,0,0,0,104.43,351.09H246.65A104.44,104.44,0,0,0,351.09,246.65V104.43A104.44,104.44,0,0,0,246.65,0Z"/><path class="cls-1" d="M175.33,116.35a59.2,59.2,0,1,1-59.2,59.19,59.25,59.25,0,0,1,59.2-59.19m0-30a89.2,89.2,0,1,0,89.19,89.19,89.19,89.19,0,0,0-89.19-89.19Z"/><circle class="cls-1" cx="268.92" cy="80.74" r="21.19"/></g></g></svg>